<svg width="100" height="100" viewBox="0 0 100 100" fill="none" xmlns="http://www.w3.org/2000/svg">
<rect width="100" height="100" rx="50" fill="#FF4978"/>
<path d="M40.5711 30.5344C34.3263 30.5344 29.2621 35.5985 29.2621 41.8434V59.9378C29.2621 66.1826 34.3263 71.2468 40.5711 71.2468H58.6655C64.9104 71.2468 69.9745 66.1826 69.9745 59.9378V41.8434C69.9745 35.5985 64.9104 30.5344 58.6655 30.5344H40.5711ZM63.1891 35.058C64.4376 35.058 65.4509 36.0713 65.4509 37.3198C65.4509 38.5683 64.4376 39.5816 63.1891 39.5816C61.9406 39.5816 60.9273 38.5683 60.9273 37.3198C60.9273 36.0713 61.9406 35.058 63.1891 35.058ZM49.6183 39.5816C55.8632 39.5816 60.9273 44.6458 60.9273 50.8906C60.9273 57.1354 55.8632 62.1996 49.6183 62.1996C43.3735 62.1996 38.3093 57.1354 38.3093 50.8906C38.3093 44.6458 43.3735 39.5816 49.6183 39.5816ZM49.6183 44.1052C47.8187 44.1052 46.0928 44.8201 44.8203 46.0926C43.5478 47.3651 42.8329 49.091 42.8329 50.8906C42.8329 52.6902 43.5478 54.4161 44.8203 55.6886C46.0928 56.9611 47.8187 57.676 49.6183 57.676C51.4179 57.676 53.1438 56.9611 54.4163 55.6886C55.6888 54.4161 56.4037 52.6902 56.4037 50.8906C56.4037 49.091 55.6888 47.3651 54.4163 46.0926C53.1438 44.8201 51.4179 44.1052 49.6183 44.1052Z" fill="white"/>
</svg>
